<?xml version="1.0" standalone="no"?>
<!DOCTYPE svg PUBLIC "-//W3C//DTD SVG 20010904//EN"
 "http://www.w3.org/TR/2001/REC-SVG-20010904/DTD/svg10.dtd">
<svg version="1.0" xmlns="http://www.w3.org/2000/svg"
 width="400.000000pt" height="400.000000pt" viewBox="0 0 400.000000 400.000000"
 preserveAspectRatio="xMidYMid meet">
<metadata>
Created by potrace 1.11, written by Peter Selinger 2001-2013
</metadata>
<g transform="translate(0.000000,400.000000) scale(0.100000,-0.100000)"
fill="#000000" stroke="none">
<path d="M1929 3716 c-2 -2 -37 -6 -77 -10 -40 -3 -82 -8 -95 -11 -12 -2 -35
-6 -52 -9 -65 -9 -201 -49 -263 -77 -36 -16 -69 -29 -75 -29 -15 0 -220 -102
-235 -117 -7 -7 -17 -13 -21 -13 -8 0 -160 -113 -215 -160 -60 -51 -246 -244
-236 -245 3 0 -1 -7 -8 -15 -38 -45 -72 -94 -72 -105 0 -6 -11 -22 -25 -35
-13 -12 -22 -26 -20 -31 3 -4 1 -10 -4 -14 -13 -7 -81 -144 -81 -161 0 -8 -4
-14 -10 -14 -5 0 -10 -7 -10 -15 0 -8 -5 -15 -11 -15 -6 0 -9 -6 -6 -14 3 -7
-1 -25 -8 -39 -7 -14 -11 -28 -7 -31 3 -3 1 -6 -5 -6 -6 0 -14 -17 -18 -37 -5
-21 -9 -43 -11 -49 -1 -6 -9 -36 -17 -65 -8 -30 -18 -72 -23 -94 -4 -22 -8
-45 -10 -52 -9 -48 -29 -299 -26 -338 0 -5 3 -37 7 -70 3 -33 8 -80 10 -105 4
-43 24 -142 46 -225 6 -22 12 -47 13 -55 3 -13 15 -47 33 -90 3 -8 7 -22 9
-30 4 -21 57 -144 64 -150 6 -5 19 -33 20 -48 1 -4 7 -14 15 -22 7 -8 20 -29
29 -46 8 -18 43 -70 77 -115 33 -46 68 -96 77 -111 9 -16 20 -28 25 -28 4 0
17 -12 30 -26 63 -76 100 -113 107 -109 4 3 10 -1 13 -9 5 -13 69 -68 157
-136 18 -14 37 -30 44 -36 6 -5 19 -13 29 -17 9 -3 17 -11 17 -17 0 -6 4 -8
10 -5 14 9 60 -25 60 -44 0 -14 2 -14 10 -1 8 12 11 12 27 -1 25 -22 261 -124
305 -133 7 -2 34 -6 61 -11 26 -4 47 -11 47 -16 0 -5 10 -8 23 -8 12 1 33 -2
47 -5 103 -24 156 -29 315 -30 226 -1 348 11 435 42 21 8 21 7 70 16 25 5 57
15 72 22 15 8 36 14 47 14 10 0 21 5 23 10 2 6 15 12 29 14 13 1 30 5 36 9 6
4 56 29 111 57 95 47 181 98 227 134 11 9 38 29 60 46 22 16 47 36 56 45 9 8
21 15 27 15 7 0 12 4 12 10 0 5 26 36 58 67 50 49 142 151 171 188 16 22 76
112 90 135 29 50 138 266 144 285 3 11 15 45 26 75 11 30 21 64 21 75 0 11 8
40 17 65 9 25 20 68 24 95 4 28 10 65 13 84 16 96 22 320 11 391 -4 28 -17
122 -21 160 -12 97 -68 286 -120 400 -41 89 -70 146 -81 158 -7 7 -13 18 -13
23 0 5 -25 46 -56 92 -173 252 -384 440 -646 577 -42 21 -79 44 -83 50 -3 6
-10 8 -15 5 -7 -4 -39 6 -105 34 -77 33 -228 75 -315 87 -14 2 -38 6 -55 9
-37 7 -349 17 -356 11z"/>
</g>
</svg>
