<?xml version="1.0" standalone="no"?>
<!DOCTYPE svg PUBLIC "-//W3C//DTD SVG 20010904//EN"
 "http://www.w3.org/TR/2001/REC-SVG-20010904/DTD/svg10.dtd">
<svg version="1.0" xmlns="http://www.w3.org/2000/svg"
 width="16.000000pt" height="16.000000pt" viewBox="0 0 16.000000 16.000000"
 preserveAspectRatio="xMidYMid meet">
<metadata>
Created by potrace 1.11, written by Peter Selinger 2001-2013
</metadata>
<g transform="translate(0.000000,16.000000) scale(0.003810,-0.003810)"
fill="#000000" stroke="none">
<path d="M0 2100 l0 -2100 2100 0 2100 0 0 2100 0 2100 -2100 0 -2100 0 0
-2100z m2353 1488 c133 -28 243 -111 292 -219 63 -140 54 -318 -22 -417 -68
-90 -225 -82 -270 13 -14 30 -15 44 -5 112 16 106 15 133 -8 170 -33 54 -68
66 -189 61 -90 -3 -114 -8 -164 -32 -161 -77 -271 -234 -314 -446 -19 -95 -21
-298 -4 -370 37 -151 133 -251 286 -296 92 -28 268 -25 362 5 80 26 76 19 89
154 l7 67 -112 0 c-126 0 -161 11 -186 60 -22 42 -19 128 5 167 36 59 54 63
309 63 l230 0 35 -31 c22 -19 38 -43 42 -64 3 -19 -6 -114 -20 -216 -15 -100
-24 -184 -21 -187 3 -3 20 5 38 19 17 13 74 52 126 87 78 52 100 63 129 60 70
-6 103 -103 64 -190 -16 -38 -35 -55 -128 -118 -60 -40 -149 -101 -199 -136
l-90 -62 -34 -144 c-80 -342 -190 -590 -300 -677 -77 -61 -119 -76 -211 -76
-92 0 -129 13 -183 64 -56 51 -72 97 -71 196 1 116 30 202 106 313 41 59 197
221 274 284 35 28 64 55 64 58 0 4 -26 1 -57 -6 -123 -29 -312 -13 -463 40
-104 36 -174 81 -261 166 -135 134 -199 303 -199 524 0 269 71 499 211 686 68
91 102 123 198 189 114 78 242 124 401 145 49 6 182 -2 243 -16z"/>
<path d="M2243 1528 c-95 -101 -153 -207 -153 -280 0 -41 3 -48 19 -48 26 0
69 52 102 126 31 68 80 234 70 234 -4 0 -21 -15 -38 -32z"/>
</g>
</svg>
